<svg width="199" height="72" viewBox="0 0 199 72" fill="none" xmlns="http://www.w3.org/2000/svg">
<path d="M0.144 59V57.812L2.736 57.128L9.468 37.004L11.556 36.536L18.648 57.128L21.24 57.812V59H13.428V57.812L15.588 57.2L14.292 53.528H6.048L4.86 57.128L7.452 57.812V59H0.144ZM6.552 51.872H13.752L10.08 41.288L6.552 51.872ZM22.743 59V57.812L25.983 57.092V38.912L22.743 38.192V37.004H32.211V38.192L28.971 38.912V57.092L32.211 57.812V59H22.743ZM40.9902 59.396C40.0542 59.396 39.0222 59.3 37.8942 59.108C36.7662 58.94 35.7342 58.664 34.7982 58.28L35.3022 54.032H36.6342L37.3182 57.128C37.7262 57.224 38.2782 57.332 38.9742 57.452C39.6702 57.572 40.4142 57.632 41.2062 57.632C42.6942 57.632 43.8702 57.296 44.7342 56.624C45.5982 55.928 46.0302 55.028 46.0302 53.924C46.0302 52.964 45.8022 52.136 45.3462 51.44C44.8902 50.744 44.0622 50.168 42.8622 49.712L38.8662 48.164C38.1462 47.876 37.5102 47.504 36.9582 47.048C36.4062 46.568 35.9742 45.968 35.6622 45.248C35.3502 44.504 35.1942 43.616 35.1942 42.584C35.1942 40.664 35.8062 39.164 37.0302 38.084C38.2782 36.98 40.0542 36.428 42.3582 36.428C43.3422 36.428 44.3262 36.512 45.3102 36.68C46.2942 36.848 47.2542 37.088 48.1902 37.4L47.8302 42.08H46.4982L45.7062 38.588C45.3702 38.468 44.8782 38.384 44.2302 38.336C43.5822 38.264 43.0302 38.228 42.5742 38.228C41.6382 38.228 40.8222 38.372 40.1262 38.66C39.4542 38.948 38.9262 39.368 38.5422 39.92C38.1822 40.448 38.0022 41.12 38.0022 41.936C38.0022 42.968 38.2782 43.784 38.8302 44.384C39.4062 44.96 40.2342 45.464 41.3142 45.896L45.2022 47.48C46.4502 47.936 47.3862 48.608 48.0102 49.496C48.6342 50.36 48.9462 51.572 48.9462 53.132C48.9462 55.052 48.2742 56.576 46.9302 57.704C45.6102 58.832 43.6302 59.396 40.9902 59.396ZM50.6745 59V57.812L53.9145 57.092V35.384L50.6745 35.024V34.196L55.9305 32.828H56.9025V57.092L60.1425 57.812V59H50.6745ZM70.614 59.36C68.622 59.36 67.002 58.952 65.754 58.136C64.53 57.296 63.63 56.192 63.054 54.824C62.502 53.432 62.226 51.908 62.226 50.252C62.226 48.524 62.502 46.964 63.054 45.572C63.63 44.18 64.53 43.076 65.754 42.26C67.002 41.42 68.622 41 70.614 41C72.654 41 74.274 41.42 75.474 42.26C76.698 43.076 77.586 44.18 78.138 45.572C78.69 46.964 78.966 48.524 78.966 50.252C78.966 51.908 78.69 53.432 78.138 54.824C77.586 56.192 76.698 57.296 75.474 58.136C74.25 58.952 72.63 59.36 70.614 59.36ZM70.722 57.632C72.066 57.632 73.086 57.308 73.782 56.66C74.502 56.012 74.994 55.124 75.258 53.996C75.522 52.844 75.654 51.56 75.654 50.144C75.654 48.728 75.51 47.468 75.222 46.364C74.934 45.236 74.418 44.348 73.674 43.7C72.93 43.028 71.874 42.692 70.506 42.692C69.21 42.692 68.202 43.028 67.482 43.7C66.762 44.348 66.258 45.236 65.97 46.364C65.682 47.468 65.538 48.728 65.538 50.144C65.538 51.56 65.682 52.844 65.97 53.996C66.282 55.124 66.81 56.012 67.554 56.66C68.298 57.308 69.354 57.632 70.722 57.632ZM81.0495 65.012V64.004L84.2535 63.068V43.52L81.0495 43.16V42.332C81.9375 42.092 82.9335 41.876 84.0375 41.684C85.1415 41.492 86.2455 41.336 87.3495 41.216C88.4775 41.072 89.4855 41 90.3735 41C92.1975 41 93.7095 41.24 94.9095 41.72C96.1095 42.2 97.0575 42.86 97.7535 43.7C98.4495 44.54 98.9415 45.524 99.2295 46.652C99.5415 47.756 99.6975 48.956 99.6975 50.252C99.6975 51.956 99.3975 53.468 98.7975 54.788C98.2215 56.108 97.3575 57.14 96.2055 57.884C95.0775 58.628 93.6615 59 91.9575 59C91.5015 59 91.0095 58.976 90.4815 58.928C89.9775 58.856 89.4855 58.748 89.0055 58.604L89.4375 57.272C89.6055 57.296 89.8095 57.32 90.0495 57.344C90.2895 57.344 90.4935 57.344 90.6615 57.344C91.9095 57.344 92.9055 57.14 93.6495 56.732C94.4175 56.324 94.9935 55.772 95.3775 55.076C95.7855 54.38 96.0495 53.6 96.1695 52.736C96.3135 51.872 96.3855 50.996 96.3855 50.108C96.3855 49.268 96.3255 48.416 96.2055 47.552C96.0855 46.688 95.8335 45.896 95.4495 45.176C95.0895 44.456 94.5255 43.88 93.7575 43.448C92.9895 42.992 91.9575 42.764 90.6615 42.764C90.2055 42.764 89.6775 42.824 89.0775 42.944C88.4775 43.04 87.8655 43.184 87.2415 43.376V63.032L90.8775 63.968V65.012H81.0495ZM113.384 59.396C111.392 59.396 109.7 59.096 108.308 58.496C106.94 57.872 105.836 57.032 104.996 55.976C104.18 54.896 103.58 53.672 103.196 52.304C102.836 50.912 102.656 49.436 102.656 47.876C102.656 46.316 102.848 44.852 103.232 43.484C103.616 42.092 104.24 40.868 105.104 39.812C105.968 38.756 107.096 37.928 108.488 37.328C109.904 36.728 111.62 36.428 113.636 36.428C114.284 36.428 115.004 36.464 115.796 36.536C116.588 36.608 117.356 36.728 118.1 36.896C118.868 37.04 119.516 37.244 120.044 37.508L119.54 42.08H118.172L117.308 38.588C116.852 38.468 116.3 38.372 115.652 38.3C115.028 38.228 114.356 38.192 113.636 38.192C112.028 38.192 110.708 38.504 109.676 39.128C108.668 39.728 107.888 40.52 107.336 41.504C106.784 42.488 106.4 43.544 106.184 44.672C105.992 45.8 105.896 46.868 105.896 47.876C105.896 48.884 106.004 49.964 106.22 51.116C106.436 52.244 106.82 53.312 107.372 54.32C107.924 55.304 108.692 56.108 109.676 56.732C110.684 57.356 111.968 57.668 113.528 57.668C114.2 57.668 114.812 57.62 115.364 57.524C115.94 57.404 116.492 57.224 117.02 56.984V50.576L113.672 49.856V48.632H122.42V49.856L119.864 50.576V57.884C119.048 58.364 118.088 58.736 116.984 59C115.904 59.264 114.704 59.396 113.384 59.396ZM130.578 59.36C129.546 59.36 128.73 59.156 128.13 58.748C127.53 58.34 127.098 57.812 126.834 57.164C126.594 56.492 126.474 55.796 126.474 55.076V43.52L123.27 43.16V42.332L128.562 41H129.498V54.68C129.498 55.472 129.666 56.084 130.002 56.516C130.362 56.924 131.166 57.128 132.414 57.128C133.062 57.128 133.854 57.008 134.79 56.768C135.75 56.528 136.59 56.276 137.31 56.012V43.52L134.07 43.16V42.332L139.362 41H140.334V56.912L143.61 57.56V58.568C142.866 58.784 142.158 58.928 141.486 59C140.838 59.096 140.274 59.144 139.794 59.144C139.338 59.144 138.858 58.988 138.354 58.676C137.874 58.364 137.586 57.92 137.49 57.344C136.818 57.608 136.11 57.908 135.366 58.244C134.622 58.556 133.842 58.82 133.026 59.036C132.234 59.252 131.418 59.36 130.578 59.36ZM150.438 59.396C149.598 59.396 148.89 59.18 148.314 58.748C147.738 58.316 147.306 57.764 147.018 57.092C146.73 56.396 146.586 55.688 146.586 54.968C146.586 54.392 146.682 53.768 146.874 53.096C147.09 52.4 147.522 51.764 148.17 51.188C148.842 50.612 149.838 50.204 151.158 49.964L156.594 48.992V45.968C156.594 45.056 156.39 44.324 155.982 43.772C155.574 43.22 154.734 42.944 153.462 42.944C152.934 42.944 152.346 42.992 151.698 43.088C151.05 43.16 150.45 43.28 149.898 43.448L149.034 46.544H147.954L147.342 42.332C148.35 41.948 149.418 41.636 150.546 41.396C151.698 41.132 152.886 41 154.11 41C155.214 41 156.174 41.12 156.99 41.36C157.806 41.6 158.442 42.008 158.898 42.584C159.354 43.136 159.582 43.916 159.582 44.924V56.912L162.642 57.56V58.568C161.97 58.784 161.322 58.928 160.698 59C160.074 59.096 159.522 59.144 159.042 59.144C158.466 59.144 157.95 58.988 157.494 58.676C157.062 58.34 156.786 57.836 156.666 57.164C155.754 57.836 154.782 58.376 153.75 58.784C152.718 59.192 151.614 59.396 150.438 59.396ZM152.346 57.164C153.042 57.164 153.774 57.02 154.542 56.732C155.334 56.444 156.018 56.144 156.594 55.832V50.576L152.85 51.188C151.65 51.38 150.822 51.788 150.366 52.412C149.934 53.036 149.718 53.708 149.718 54.428C149.718 55.46 149.97 56.18 150.474 56.588C150.978 56.972 151.602 57.164 152.346 57.164ZM164.452 59V57.992L167.656 57.056V43.592L164.452 43.16V42.332L169.276 41H170.536V42.656C171.376 42.128 172.288 41.708 173.272 41.396C174.28 41.084 175.228 40.928 176.116 40.928C176.308 40.928 176.464 40.928 176.584 40.928C176.728 40.928 176.884 40.94 177.052 40.964L176.512 46.148H175.324L174.568 43.304C173.848 43.304 173.152 43.376 172.48 43.52C171.832 43.64 171.22 43.796 170.644 43.988V57.092L174.712 57.92V59H164.452ZM185.353 59.36C183.937 59.36 182.749 58.94 181.789 58.1C180.829 57.236 180.109 56.108 179.629 54.716C179.173 53.324 178.945 51.836 178.945 50.252C178.945 47.396 179.653 45.14 181.069 43.484C182.509 41.828 184.537 41 187.153 41C187.873 41 188.557 41.06 189.205 41.18C189.853 41.3 190.369 41.432 190.753 41.576C191.161 41.696 191.365 41.768 191.365 41.792V35.384L188.125 35.024V34.196L193.381 32.828H194.353V56.912L197.557 57.56V58.568C196.861 58.784 196.177 58.928 195.505 59C194.833 59.096 194.245 59.144 193.741 59.144C193.285 59.144 192.817 58.988 192.337 58.676C191.857 58.364 191.569 57.92 191.473 57.344C190.585 57.944 189.661 58.436 188.701 58.82C187.741 59.18 186.625 59.36 185.353 59.36ZM186.757 57.272C187.717 57.272 188.605 57.104 189.421 56.768C190.261 56.408 190.909 56.108 191.365 55.868V43.772C190.789 43.436 190.165 43.172 189.493 42.98C188.845 42.788 188.101 42.692 187.261 42.692C185.629 42.692 184.381 43.364 183.517 44.708C182.677 46.052 182.257 47.864 182.257 50.144C182.257 52.256 182.617 53.972 183.337 55.292C184.081 56.612 185.221 57.272 186.757 57.272Z" fill="#648FFF"/>
<path d="M120 20L100 40L80 20L100 0L120 20ZM94.1201 16.7627L93.125 15.6465C93.366 15.2509 93.4393 14.7603 93.293 14.2949L93.2344 14.1357C92.897 13.3515 92.0228 12.9632 91.2256 13.2139L91.0674 13.2725C90.2306 13.6323 89.8443 14.6027 90.2041 15.4395L90.2783 15.5908C90.6575 16.2724 91.4679 16.5954 92.2119 16.3613L92.3701 16.3027L93.9219 18.0439L92.3047 28.5352L110.944 21.2939L105.436 16.8701L107.724 14.7871C108.46 15.0102 109.259 14.6923 109.637 14.0195L109.712 13.8682C110.052 13.0852 109.737 12.1818 109.009 11.7725L108.857 11.6973C108.022 11.334 107.051 11.7167 106.688 12.5518L106.628 12.71C106.462 13.2302 106.569 13.7837 106.882 14.2002L104.646 16.2354L95.3525 8.77246L94.1201 16.7627ZM105.015 20.3789L96.0615 23.8574L97.5264 14.3643L105.015 20.3789ZM91.4619 14.1914C91.7913 14.0498 92.1738 14.2019 92.3154 14.5312C92.4569 14.8606 92.3049 15.2431 91.9756 15.3848C91.6462 15.5264 91.2638 15.3733 91.1221 15.0439C90.9807 14.7148 91.1329 14.3332 91.4619 14.1914ZM107.604 12.9512C107.748 12.6223 108.13 12.4712 108.459 12.6143C108.787 12.7574 108.938 13.1401 108.795 13.4688C108.652 13.7974 108.269 13.9485 107.94 13.8057C107.612 13.6627 107.462 13.2799 107.604 12.9512Z" fill="#648FFF"/>
</svg>
